{
    "asset" : {
        "generator" : "Khronos glTF Blender I/O v1.0.5",
        "version" : "2.0"
    },
    "scene" : 0,
    "scenes" : [
        {
            "name" : "Scene",
            "nodes" : [
                0
            ]
        }
    ],
    "nodes" : [
        {
            "mesh" : 0,
            "name" : "lettre_a",
            "rotation" : [
                0.7071068286895752,
                0,
                0,
                0.7071067094802856
            ],
            "scale" : [
                216.1287384033203,
                216.1287384033203,
                216.1287384033203
            ]
        }
    ],
    "materials" : [
        {
            "doubleSided" : true,
            "name" : "or",
            "pbrMetallicRoughness" : {
                "baseColorFactor" : [
                    0.35884130001068115,
                    0.20575062930583954,
                    0.020784754306077957,
                    1
                ],
                "metallicFactor" : 0.8571428060531616,
                "roughnessFactor" : 0
            }
        }
    ],
    "meshes" : [
        {
            "name" : "Curve.022",
            "primitives" : [
                {
                    "attributes" : {
                        "POSITION" : 0,
                        "NORMAL" : 1
                    },
                    "indices" : 2,
                    "material" : 0
                }
            ]
        }
    ],
    "accessors" : [
        {
            "bufferView" : 0,
            "componentType" : 5126,
            "count" : 2093,
            "max" : [
                0.030658382922410965,
                0.0009284925181418657,
                -0.017391685396432877
            ],
            "min" : [
                0.01443873718380928,
                -0.0010715073440223932,
                -0.03471118584275246
            ],
            "type" : "VEC3"
        },
        {
            "bufferView" : 1,
            "componentType" : 5126,
            "count" : 2093,
            "type" : "VEC3"
        },
        {
            "bufferView" : 2,
            "componentType" : 5123,
            "count" : 5412,
            "type" : "SCALAR"
        }
    ],
    "bufferViews" : [
        {
            "buffer" : 0,
            "byteLength" : 25116,
            "byteOffset" : 0
        },
        {
            "buffer" : 0,
            "byteLength" : 25116,
            "byteOffset" : 25116
        },
        {
            "buffer" : 0,
            "byteLength" : 10824,
            "byteOffset" : 50232
        }
    ],
    "buffers" : [
        {
            "byteLength" : 61056,
            "uri" : "data:application/octet-stream;base64,"
        }
    ]
}
