{
    "asset" : {
        "generator" : "Khronos glTF Blender I/O v1.0.5",
        "version" : "2.0"
    },
    "scene" : 0,
    "scenes" : [
        {
            "name" : "Scene",
            "nodes" : [
                0
            ]
        }
    ],
    "nodes" : [
        {
            "mesh" : 0,
            "name" : "logo_haut",
            "rotation" : [
                0.7071067690849304,
                0,
                0,
                0.7071067690849304
            ],
            "scale" : [
                216.1287078857422,
                216.1287078857422,
                216.1287078857422
            ]
        }
    ],
    "materials" : [
        {
            "doubleSided" : true,
            "name" : "argent1",
            "pbrMetallicRoughness" : {
                "baseColorFactor" : [
                    0.15232506394386292,
                    0.15232506394386292,
                    0.15232506394386292,
                    1
                ],
                "metallicFactor" : 0.7951191663742065,
                "roughnessFactor" : 0
            }
        }
    ],
    "meshes" : [
        {
            "name" : "Curve.026",
            "primitives" : [
                {
                    "attributes" : {
                        "POSITION" : 0,
                        "NORMAL" : 1
                    },
                    "indices" : 2,
                    "material" : 0
                }
            ]
        }
    ],
    "accessors" : [
        {
            "bufferView" : 0,
            "componentType" : 5126,
            "count" : 934,
            "max" : [
                0.01829797774553299,
                0.0019284876761958003,
                -0.054451681673526764
            ],
            "min" : [
                -0.010607809759676456,
                -0.0020715119317173958,
                -0.10498520731925964
            ],
            "type" : "VEC3"
        },
        {
            "bufferView" : 1,
            "componentType" : 5126,
            "count" : 934,
            "type" : "VEC3"
        },
        {
            "bufferView" : 2,
            "componentType" : 5123,
            "count" : 2460,
            "type" : "SCALAR"
        }
    ],
    "bufferViews" : [
        {
            "buffer" : 0,
            "byteLength" : 11208,
            "byteOffset" : 0
        },
        {
            "buffer" : 0,
            "byteLength" : 11208,
            "byteOffset" : 11208
        },
        {
            "buffer" : 0,
            "byteLength" : 4920,
            "byteOffset" : 22416
        }
    ],
    "buffers" : [
        {
            "byteLength" : 27336,
            "uri" : "data:application/octet-stream;base64,"
        }
    ]
}
