{
    "asset" : {
        "generator" : "Khronos glTF Blender I/O v1.0.5",
        "version" : "2.0"
    },
    "scene" : 0,
    "scenes" : [
        {
            "name" : "Scene",
            "nodes" : [
                0
            ]
        }
    ],
    "nodes" : [
        {
            "mesh" : 0,
            "name" : "logo_a",
            "rotation" : [
                0.7070979475975037,
                0.0035355188883841038,
                -0.003535517957061529,
                0.7070979475975037
            ],
            "scale" : [
                216.1287384033203,
                216.1287384033203,
                216.1287384033203
            ]
        }
    ],
    "materials" : [
        {
            "doubleSided" : true,
            "name" : "or",
            "pbrMetallicRoughness" : {
                "baseColorFactor" : [
                    0.35884130001068115,
                    0.20575062930583954,
                    0.020784754306077957,
                    1
                ],
                "metallicFactor" : 0.8571428060531616,
                "roughnessFactor" : 0
            }
        }
    ],
    "meshes" : [
        {
            "name" : "Curve.029",
            "primitives" : [
                {
                    "attributes" : {
                        "POSITION" : 0,
                        "NORMAL" : 1
                    },
                    "indices" : 2,
                    "material" : 0
                }
            ]
        }
    ],
    "accessors" : [
        {
            "bufferView" : 0,
            "componentType" : 5126,
            "count" : 2131,
            "max" : [
                0.012851998209953308,
                -0.00025957217440009117,
                -0.05995678901672363
            ],
            "min" : [
                -0.004519134759902954,
                -0.00225957203656435,
                -0.07727628201246262
            ],
            "type" : "VEC3"
        },
        {
            "bufferView" : 1,
            "componentType" : 5126,
            "count" : 2131,
            "type" : "VEC3"
        },
        {
            "bufferView" : 2,
            "componentType" : 5123,
            "count" : 5412,
            "type" : "SCALAR"
        }
    ],
    "bufferViews" : [
        {
            "buffer" : 0,
            "byteLength" : 25572,
            "byteOffset" : 0
        },
        {
            "buffer" : 0,
            "byteLength" : 25572,
            "byteOffset" : 25572
        },
        {
            "buffer" : 0,
            "byteLength" : 10824,
            "byteOffset" : 51144
        }
    ],
    "buffers" : [
        {
            "byteLength" : 61968,
            "uri" : "data:application/octet-stream;base64,"
        }
    ]
}
