{
    "asset" : {
        "generator" : "Khronos glTF Blender I/O v1.0.5",
        "version" : "2.0"
    },
    "scene" : 0,
    "scenes" : [
        {
            "name" : "Scene",
            "nodes" : [
                0
            ]
        }
    ],
    "nodes" : [
        {
            "mesh" : 0,
            "name" : "logo_gauche",
            "rotation" : [
                0.7071067690849304,
                0,
                0,
                0.7071067690849304
            ],
            "scale" : [
                216.1287384033203,
                216.1287384033203,
                216.1287384033203
            ]
        }
    ],
    "materials" : [
        {
            "doubleSided" : true,
            "name" : "argent1",
            "pbrMetallicRoughness" : {
                "baseColorFactor" : [
                    0.15232506394386292,
                    0.15232506394386292,
                    0.15232506394386292,
                    1
                ],
                "metallicFactor" : 0.7951191663742065,
                "roughnessFactor" : 0
            }
        }
    ],
    "meshes" : [
        {
            "name" : "Curve.025",
            "primitives" : [
                {
                    "attributes" : {
                        "POSITION" : 0,
                        "NORMAL" : 1
                    },
                    "indices" : 2,
                    "material" : 0
                }
            ]
        }
    ],
    "accessors" : [
        {
            "bufferView" : 0,
            "componentType" : 5126,
            "count" : 1065,
            "max" : [
                0.007813223637640476,
                0.0019284877926111221,
                -0.0509595051407814
            ],
            "min" : [
                -0.031628139317035675,
                -0.0020715119317173958,
                -0.08691911399364471
            ],
            "type" : "VEC3"
        },
        {
            "bufferView" : 1,
            "componentType" : 5126,
            "count" : 1065,
            "type" : "VEC3"
        },
        {
            "bufferView" : 2,
            "componentType" : 5123,
            "count" : 2784,
            "type" : "SCALAR"
        }
    ],
    "bufferViews" : [
        {
            "buffer" : 0,
            "byteLength" : 12780,
            "byteOffset" : 0
        },
        {
            "buffer" : 0,
            "byteLength" : 12780,
            "byteOffset" : 12780
        },
        {
            "buffer" : 0,
            "byteLength" : 5568,
            "byteOffset" : 25560
        }
    ],
    "buffers" : [
        {
            "byteLength" : 31128,
            "uri" : "data:application/octet-stream;base64,"
        }
    ]
}
