{
    "asset" : {
        "generator" : "Khronos glTF Blender I/O v1.0.5",
        "version" : "2.0"
    },
    "scene" : 0,
    "scenes" : [
        {
            "name" : "Scene",
            "nodes" : [
                0
            ]
        }
    ],
    "nodes" : [
        {
            "mesh" : 0,
            "name" : "lettre_l",
            "rotation" : [
                0.7071068286895752,
                0,
                0,
                0.7071067094802856
            ],
            "scale" : [
                216.1287384033203,
                216.1287384033203,
                216.1287384033203
            ]
        }
    ],
    "materials" : [
        {
            "doubleSided" : true,
            "name" : "argent1",
            "pbrMetallicRoughness" : {
                "baseColorFactor" : [
                    0.15232506394386292,
                    0.15232506394386292,
                    0.15232506394386292,
                    1
                ],
                "metallicFactor" : 0.7951191663742065,
                "roughnessFactor" : 0
            }
        }
    ],
    "meshes" : [
        {
            "name" : "Curve.019",
            "primitives" : [
                {
                    "attributes" : {
                        "POSITION" : 0,
                        "NORMAL" : 1
                    },
                    "indices" : 2,
                    "material" : 0
                }
            ]
        }
    ],
    "accessors" : [
        {
            "bufferView" : 0,
            "componentType" : 5126,
            "count" : 1878,
            "max" : [
                -0.03965308144688606,
                0.0009284924599342048,
                -0.017225205898284912
            ],
            "min" : [
                -0.052508559077978134,
                -0.0010715073440223932,
                -0.03434436768293381
            ],
            "type" : "VEC3"
        },
        {
            "bufferView" : 1,
            "componentType" : 5126,
            "count" : 1878,
            "type" : "VEC3"
        },
        {
            "bufferView" : 2,
            "componentType" : 5123,
            "count" : 4944,
            "type" : "SCALAR"
        }
    ],
    "bufferViews" : [
        {
            "buffer" : 0,
            "byteLength" : 22536,
            "byteOffset" : 0
        },
        {
            "buffer" : 0,
            "byteLength" : 22536,
            "byteOffset" : 22536
        },
        {
            "buffer" : 0,
            "byteLength" : 9888,
            "byteOffset" : 45072
        }
    ],
    "buffers" : [
        {
            "byteLength" : 54960,
            "uri" : "data:application/octet-stream;base64,"
        }
    ]
}
