{
    "asset" : {
        "generator" : "Khronos glTF Blender I/O v1.0.5",
        "version" : "2.0"
    },
    "scene" : 0,
    "scenes" : [
        {
            "name" : "Scene",
            "nodes" : [
                0
            ]
        }
    ],
    "nodes" : [
        {
            "mesh" : 0,
            "name" : "sous_titre",
            "rotation" : [
                0.7071068286895752,
                0,
                0,
                0.7071067094802856
            ],
            "scale" : [
                216.1287384033203,
                216.1287384033203,
                216.1287384033203
            ]
        }
    ],
    "materials" : [
        {
            "doubleSided" : true,
            "name" : "argent1",
            "pbrMetallicRoughness" : {
                "baseColorFactor" : [
                    0.15232506394386292,
                    0.15232506394386292,
                    0.15232506394386292,
                    1
                ],
                "metallicFactor" : 0.7951191663742065,
                "roughnessFactor" : 0
            }
        }
    ],
    "meshes" : [
        {
            "name" : "Curve.017",
            "primitives" : [
                {
                    "attributes" : {
                        "POSITION" : 0,
                        "NORMAL" : 1
                    },
                    "indices" : 2,
                    "material" : 0
                }
            ]
        }
    ],
    "accessors" : [
        {
            "bufferView" : 0,
            "componentType" : 5126,
            "count" : 10996,
            "max" : [
                0.0752786248922348,
                0.00042849252349697053,
                -0.008113997057080269
            ],
            "min" : [
                -0.07523074746131897,
                -0.0005715135484933853,
                -0.011731388047337532
            ],
            "type" : "VEC3"
        },
        {
            "bufferView" : 1,
            "componentType" : 5126,
            "count" : 10996,
            "type" : "VEC3"
        },
        {
            "bufferView" : 2,
            "componentType" : 5123,
            "count" : 27912,
            "type" : "SCALAR"
        }
    ],
    "bufferViews" : [
        {
            "buffer" : 0,
            "byteLength" : 131952,
            "byteOffset" : 0
        },
        {
            "buffer" : 0,
            "byteLength" : 131952,
            "byteOffset" : 131952
        },
        {
            "buffer" : 0,
            "byteLength" : 55824,
            "byteOffset" : 263904
        }
    ],
    "buffers" : [
        {
            "byteLength" : 319728,
            "uri" : "data:application/octet-stream;base64,"
        }
    ]
}
